<svg width="233" height="252" viewBox="0 0 233 252" fill="none" xmlns="http://www.w3.org/2000/svg">
<g clip-path="url(#clip0_175_15645)">
<path opacity="0.1" d="M87.4092 247.013C74.551 237.754 76.6361 219.041 87.9594 207.881C100.516 195.502 120.543 196.245 123.961 196.429C135.855 197.068 155.006 202.103 158.324 214.454C162.014 228.18 143.422 240.823 132.136 245.81C129.178 247.116 103.064 258.289 87.4092 247.017V247.013Z" fill="#684EAA"/>
<path opacity="0.1" d="M87.2147 37.6209C96.2005 30.7001 100.259 19.4357 109.406 12.7186C119.141 5.566 132.644 4.15146 144.497 3.98364C165.166 3.68794 186.212 10.6647 201.958 23.6793C236.184 51.9701 233.028 99.581 232.324 107.737C230.305 131.216 223.756 157.769 206.567 175.435C183.8 198.827 158.15 187.043 130.965 179.826C114.731 175.515 97.6527 175.89 82.4074 183.299C40.2584 203.777 0 165.549 0 125.33C0 100.1 14.9847 78.7465 35.0745 63.75C45.5746 55.9101 57.295 49.6405 69.4706 44.5937C75.0516 42.2801 81.9316 41.5369 86.9706 37.8047C87.0492 37.7448 87.1278 37.6849 87.2147 37.6209Z" fill="#684EAA"/>
<path fill-rule="evenodd" clip-rule="evenodd" d="M184.371 67.642L176.461 65.8398H116.295C109.274 65.8398 106.233 69.6319 104.57 73.5559L42.3228 220.616C39.1165 228.184 47.8003 232.412 52.194 232.412H122.595C126.989 232.412 132.826 228.784 134.941 223.425L190.097 83.5935C190.97 81.3878 191.226 79.5497 191.04 78.0712C190.783 76.0373 185.761 67.9577 184.375 67.642" fill="#3D2A61"/>
<path fill-rule="evenodd" clip-rule="evenodd" d="M180.23 65.8398H111.98C104.959 65.8398 101.819 69.592 100.255 73.5559L42.6827 219.513C40.2873 225.591 45.7194 228.648 50.113 228.648H116.663C121.056 228.648 126.894 225.02 129.008 219.661L185.546 76.325C188.417 69.0525 184.623 65.8398 180.23 65.8398Z" fill="#5A4091"/>
<path fill-rule="evenodd" clip-rule="evenodd" d="M177.656 73.3594C182.12 73.3594 181.723 77.2793 180.499 80.3801L130.952 205.643C130.104 207.785 128.482 209.651 126.563 210.981C125.061 212.024 122.972 212.983 121.081 212.983H54.5314C53.7371 212.983 52.9179 212.843 52.165 212.592C49.5131 211.701 48.5574 209.922 49.5751 207.313L98.9931 80.4561C100.631 76.2564 103.565 74.3863 108.248 74.3863C126.993 74.3863 126.915 73.8748 147.79 73.6471C157.889 73.5352 167.429 73.3634 177.656 73.3634" fill="#6AC98A"/>
<path fill-rule="evenodd" clip-rule="evenodd" d="M85.0675 223.581C87.285 221.351 88.1248 217.807 86.168 216.464C81.3234 213.144 74.6668 220.872 78.142 224.544C79.7513 226.242 82.85 225.81 85.0675 223.581Z" fill="#826CB4"/>
<path fill-rule="evenodd" clip-rule="evenodd" d="M84.3932 222.886C86.0894 221.18 86.7307 218.471 85.233 217.444C81.5262 214.903 76.4333 220.817 79.0935 223.626C80.3222 224.924 82.697 224.597 84.3932 222.89" fill="#BEB3D8"/>
<path fill-rule="evenodd" clip-rule="evenodd" d="M90.392 102.549C84.7035 114.609 77.6497 128.422 61.3701 130.764C48.1644 132.666 28.8399 108.655 26.9409 104.739C25.042 100.823 32.2571 90.5935 34.5863 91.7762C36.9155 92.959 56.058 107.236 57.8039 107.124C59.8476 106.997 66.8145 85.5866 79.4617 78.5379C81.4351 77.439 92.8412 97.3545 90.392 102.541" fill="#5A4091"/>
<path fill-rule="evenodd" clip-rule="evenodd" d="M87.3181 34.8594C90.7023 58.7108 74.1083 66.0712 90.3548 88.1284C90.3548 88.1284 100.305 77.5513 104.57 76.8001C108.831 76.0529 109.398 63.1102 109.398 62.4469C109.398 61.7836 105.604 35.9822 105.604 35.9822L87.3181 34.8594Z" fill="url(#paint0_linear_175_15645)"/>
<path fill-rule="evenodd" clip-rule="evenodd" d="M119.393 168.766C133.037 158.317 140.985 147.727 139.479 144.451C137.973 141.174 120.94 142.297 106.945 151.979C92.9487 161.661 84.6496 175.731 87.2105 179.011C89.7673 182.288 105.749 179.215 119.393 168.766Z" fill="#C5E6CE"/>
<path fill-rule="evenodd" clip-rule="evenodd" d="M121.917 72.8091C129.947 72.8091 138.019 76.7451 141.535 81.8078C146.959 89.6158 132.533 106.71 137.055 146.377C136.575 149.026 110.871 178.288 88.4559 177.573C76.21 156.711 65.9706 121.699 73.4009 83.6819C81.8158 70.8911 108.98 72.8091 121.917 72.8091Z" fill="#6448A1"/>
<path fill-rule="evenodd" clip-rule="evenodd" d="M96.4777 73.3927C87.1567 78.5913 83.301 127.233 98.1367 176.227C108.128 173.841 113.576 169.346 119.459 164.81C110.842 121.699 117.606 82.7471 121.379 72.8133C113.266 72.2978 106.411 71.9022 96.4777 73.3967" fill="white"/>
<path fill-rule="evenodd" clip-rule="evenodd" d="M91.5049 64.162C94.0492 67.1109 96.9824 69.4925 99.9984 70.1358V73.3125L99.4109 74.0797C97.2637 77.688 98.4304 84.9365 101.988 86.7027C107.553 84.7767 115.082 80.0216 116.588 73.3405L115.595 72.4534L114.238 71.5383L113.576 63.6225C113.998 63.5026 116.683 61.1091 117.536 60.6256C118.392 60.1461 119.331 58.1242 118.984 56.2941C118.636 54.464 115.881 55.7027 115.881 55.7027C118.272 50.2763 121.329 45.5931 115.173 42.5762C109.013 39.5593 96.5935 39.7871 96.5935 39.7871L88.8943 39.0039C90.3713 41.1737 90.1189 48.3942 89.486 53.7527C88.915 58.5557 88.0876 60.21 91.5007 64.1659" fill="#F9C4C7"/>
<path fill-rule="evenodd" clip-rule="evenodd" d="M110.453 65.3281C108.624 71.0542 106.767 74.8423 99.9984 75.5696V70.1392C102.365 69.9793 105.501 69.2081 110.453 65.3281Z" fill="#EA8287"/>
<path fill-rule="evenodd" clip-rule="evenodd" d="M126.948 93.1958C124.014 87.3658 124.577 82.1432 130.199 78.5229C135.826 74.9027 140.621 79.3181 143.554 85.1481C149.313 96.5883 153.529 122.098 147.435 129.358C143.724 133.778 125.756 136.931 115.19 137.894C111.574 138.221 107.334 138.293 106.324 138.022C102.642 137.043 100.495 129.478 102.224 126.378C102.899 125.171 106.883 124.751 108.426 124.456C115.947 123.029 128.809 118.478 130.985 117.343C134.965 115.269 129.004 97.2756 126.948 93.1878" fill="#7559A9"/>
<path fill-rule="evenodd" clip-rule="evenodd" d="M105.761 127.064C108.794 128.007 113.229 137.446 106.303 136.902C103.494 136.683 102.634 136.814 102.634 136.814C99.1131 134.381 98.4056 130.653 98.5339 127.972L105.761 127.064Z" fill="#6AC98A"/>
<path fill-rule="evenodd" clip-rule="evenodd" d="M33.9244 93.1633C34.5367 96.8635 30.9623 102.833 28.2483 103.892C27.9463 103.369 26.1301 101.111 24.9262 99.3769C22.3446 95.6487 28.4386 87.8567 30.2258 89.587L33.9244 93.1633Z" fill="#6AC98A"/>
<path fill-rule="evenodd" clip-rule="evenodd" d="M26.7382 87.3092C26.3576 85.6069 24.7565 78.8899 23.4616 77.759C22.7997 77.1836 22.6425 77.4434 22.3487 77.811C22.0922 78.1306 21.873 79.0017 21.9433 79.5971C22.0964 80.8438 22.1957 81.9787 22.3901 82.65C18.464 80.664 14.7033 76.0128 11.8322 72.8281C10.6655 71.5334 8.81206 71.6733 9.93322 73.9829C10.8517 75.873 14.4799 80.1046 14.4799 80.1046L9.52365 77.0198C8.15012 76.3005 8.1584 77.9348 8.81206 78.6221C9.88771 79.749 13.2015 82.7579 13.2015 82.7579L9.58984 81.4872C8.20804 80.9997 8.9279 82.646 9.2961 82.9337C10.1442 83.597 13.1436 85.4471 13.1436 85.4471L11.4846 84.9196C9.60639 84.3203 10.9841 86.6539 11.526 86.8177C11.6419 86.8536 18.1247 90.8176 19.2542 91.4729C22.0715 93.1032 23.4078 95.8044 25.4061 98.0701C26.49 97.2709 29.2122 94.2101 29.6011 90.4499L26.7382 87.3132V87.3092Z" fill="#F9C4C7"/>
<path fill-rule="evenodd" clip-rule="evenodd" d="M100.052 128.81L96.9204 129.202L90.5368 126.892C89.8624 126.441 85.2702 124.487 86.2507 126.249C86.9375 127.488 89.3577 129.757 89.2667 129.861C88.0793 131.256 78.6881 131.967 78.5722 132.091C76.9505 133.833 82.941 133.717 83.9546 133.741C84.2235 133.749 79.8506 134.708 80.0037 134.904C80.1898 135.14 80.6491 135.787 81.7743 135.787C83.152 135.787 85.506 135.419 85.7336 135.655C85.9735 135.899 81.7247 136.798 81.9647 137.006C82.1508 137.17 82.5149 137.509 83.3795 137.489C84.8069 137.453 86.9623 136.982 87.2726 137.17C87.5911 137.365 84.5131 137.837 84.8193 137.993C85.0592 138.113 85.0427 138.572 85.3033 138.584C92.3819 138.952 92.9322 135.507 101.024 136.143C105.526 136.494 101.438 129.745 100.052 128.81Z" fill="#F9C4C7"/>
<path fill-rule="evenodd" clip-rule="evenodd" d="M94.2189 59.2539C93.3873 60.5406 95.5965 62.4386 96.8087 62.7423C99.6426 63.4456 102.787 62.4666 103.126 59.5576C101.695 59.198 99.3861 60.0451 96.999 59.7014C95.1663 59.4377 94.2189 59.2539 94.2189 59.2539Z" fill="white"/>
<path fill-rule="evenodd" clip-rule="evenodd" d="M71.1006 187.982C72.5114 189.061 72.5817 191.255 71.2496 192.881C69.9174 194.507 67.6958 194.951 66.2809 193.872C64.866 192.793 64.7998 190.599 66.1319 188.973C67.4641 187.347 69.6857 186.903 71.1006 187.982Z" fill="#EC1C24"/>
<path fill-rule="evenodd" clip-rule="evenodd" d="M122.235 45.7246C124.002 45.7246 125.438 47.4508 125.438 49.5806C125.438 51.7104 124.006 53.4366 122.235 53.4366C120.465 53.4366 119.037 51.7104 119.037 49.5806C119.037 47.4508 120.469 45.7246 122.235 45.7246Z" fill="#FF89A2"/>
<path d="M98.9145 188.9C98.9641 188.776 99.0179 188.653 99.0676 188.529C99.1089 188.429 99.1834 188.341 99.2951 188.265C99.4027 188.193 99.5102 188.153 99.6178 188.153H103.982C104.09 188.153 104.169 188.189 104.214 188.265C104.26 188.337 104.268 188.425 104.227 188.529C104.177 188.649 104.127 188.772 104.078 188.892C104.003 189.076 103.821 189.312 103.532 189.608C102.911 190.243 102.299 190.882 101.678 191.518C101.062 192.153 100.445 192.792 99.8329 193.428C99.5971 193.671 99.3654 193.795 99.1462 193.795H98.3146C98.1988 193.795 98.1367 193.759 98.1243 193.691C98.1119 193.623 98.1367 193.547 98.2153 193.464C98.8938 192.764 99.5723 192.065 100.251 191.366C100.929 190.666 101.608 189.967 102.286 189.264H99.1669C99.0552 189.264 98.9766 189.228 98.931 189.156C98.8814 189.084 98.8814 188.996 98.9228 188.896L98.9145 188.9ZM89.6887 193.683C89.6887 193.659 89.6928 193.635 89.7053 193.611C89.7301 193.551 89.7756 193.492 89.8418 193.428C90.6154 192.612 91.3891 191.793 92.1627 190.978C92.9363 190.159 93.7141 189.348 94.4878 188.529C94.7194 188.285 95.0049 188.157 95.3483 188.153C95.5758 188.153 95.8034 188.153 96.0351 188.153C96.1343 188.153 96.1799 188.193 96.1757 188.269C96.1757 188.293 96.1674 188.317 96.1592 188.345C96.1385 188.405 96.0847 188.461 96.0226 188.529C95.2449 189.344 94.4671 190.163 93.6976 190.978C92.9281 191.793 92.1503 192.608 91.3808 193.428C91.1532 193.671 90.8636 193.795 90.5244 193.795H89.8418C89.7384 193.795 89.6928 193.759 89.697 193.679L89.6887 193.683ZM83.0279 191.693H85.1048C85.2578 191.314 85.4151 190.934 85.5723 190.555C85.7253 190.175 85.8826 189.795 86.0398 189.416C85.535 189.795 85.0303 190.175 84.5297 190.555C84.0291 190.934 83.5285 191.314 83.0279 191.693ZM81.0918 192.437C81.1538 192.281 81.22 192.125 81.2821 191.969C81.3772 191.737 81.5468 191.538 81.7868 191.354C82.4363 190.862 83.0859 190.367 83.7312 189.875C84.3808 189.384 85.0303 188.892 85.684 188.397C85.895 188.237 86.1432 188.153 86.4204 188.153C86.8465 188.153 87.2685 188.153 87.6946 188.153C87.8022 188.153 87.8849 188.189 87.9304 188.265C87.9759 188.337 87.9759 188.425 87.9304 188.529C87.7153 189.056 87.5002 189.588 87.285 190.111C87.0699 190.638 86.8548 191.166 86.6355 191.693H87.0823C87.1982 191.693 87.2726 191.729 87.3181 191.805C87.3636 191.881 87.3678 191.965 87.3223 192.069C87.2726 192.193 87.223 192.317 87.1733 192.441C87.132 192.545 87.0575 192.628 86.9458 192.704C86.8424 192.776 86.7307 192.812 86.6272 192.812H86.1804C86.0935 193.02 86.0108 193.228 85.9239 193.436C85.8826 193.539 85.8081 193.627 85.7005 193.695C85.5888 193.767 85.4854 193.803 85.3778 193.803H84.6207C84.5173 193.803 84.4387 193.767 84.3932 193.699C84.3477 193.627 84.3435 193.543 84.3849 193.444C84.4677 193.232 84.5545 193.024 84.6414 192.812H81.3234C81.22 192.812 81.1414 192.776 81.0918 192.704C81.0421 192.632 81.038 192.545 81.0793 192.445L81.0918 192.437ZM75.2501 193.428C75.3287 193.236 75.4074 193.044 75.486 192.852C75.6225 192.521 75.8087 192.233 76.0527 191.985C76.2927 191.741 76.5533 191.55 76.8305 191.41C77.1119 191.27 77.4056 191.15 77.72 191.05C78.0344 190.95 78.3406 190.866 78.6384 190.798C78.9363 190.73 79.2052 190.666 79.4576 190.611C79.7058 190.555 79.921 190.475 80.103 190.371C80.2892 190.267 80.4091 190.143 80.4671 189.995C80.587 189.699 80.5953 189.496 80.4795 189.392C80.3636 189.288 80.1237 189.232 79.7513 189.232H79.4576C78.9363 189.232 78.5226 189.392 78.2289 189.715C78.0013 189.963 77.7738 190.087 77.5297 190.087H77.0415C76.9919 190.087 76.9464 190.075 76.8967 190.059C76.8429 190.039 76.8098 189.995 76.7809 189.923C76.7478 189.847 76.7561 189.759 76.7974 189.652C76.9215 189.348 77.1491 189.08 77.4842 188.84C77.8234 188.601 78.1875 188.421 78.5888 188.301C78.9942 188.181 79.3873 188.121 79.7679 188.121H80.314C80.6781 188.121 80.9842 188.153 81.2407 188.209C81.5013 188.269 81.7165 188.365 81.8902 188.501C82.064 188.637 82.1674 188.828 82.1881 189.08C82.2088 189.332 82.1426 189.636 81.9978 189.999C81.8737 190.303 81.6958 190.571 81.46 190.802C81.2241 191.034 80.9635 191.218 80.6905 191.354C80.4091 191.494 80.1113 191.609 79.801 191.709C79.4866 191.809 79.1804 191.893 78.8825 191.957C78.5847 192.025 78.3158 192.085 78.0675 192.145C77.8193 192.201 77.6042 192.273 77.4263 192.365C77.2484 192.457 77.1325 192.561 77.0829 192.684H80.4671C80.5788 192.684 80.6574 192.72 80.7029 192.796C80.7484 192.868 80.7484 192.956 80.7029 193.06C80.6532 193.184 80.6036 193.308 80.5539 193.432C80.5126 193.535 80.4381 193.619 80.3264 193.695C80.2188 193.767 80.1154 193.803 80.0078 193.803H75.486C75.3784 193.803 75.3039 193.767 75.2543 193.695C75.2046 193.623 75.2046 193.536 75.246 193.436L75.2501 193.428Z" fill="white"/>
<path fill-rule="evenodd" clip-rule="evenodd" d="M107.156 43.9744C107.156 43.9744 92.4316 47.243 84.8358 42.7996C79.8547 39.4631 79.6768 31.9188 86.9747 26.94C96.3784 20.5226 115.186 22.041 122.103 32.2705C124.519 35.8388 127.026 43.3431 129.893 49.6645C136.558 64.3694 154.381 62.8589 155.539 81.9712C155.61 83.134 153.26 81.2799 149.503 80.3489C153.872 85.7553 147.873 93.3195 146.938 94.4423C138.184 73.42 133.191 76.317 116.592 73.7397C114.776 72.1134 114.921 72.3931 114.247 71.9336C113.994 68.9327 113.572 65.6441 113.564 63.774C113.564 63.774 117.461 61.1247 117.271 58.0479C117.081 54.9711 116.183 55.051 115.815 55.1269C115.451 55.1988 113.365 56.3696 113.365 56.3696C112.625 52.3737 112.795 44.418 107.151 43.9744" fill="url(#paint1_linear_175_15645)"/>
<path fill-rule="evenodd" clip-rule="evenodd" d="M121.822 43.6099C125.4 45.492 126.757 50.6946 124.858 55.2259C122.959 59.7572 118.52 61.903 114.942 60.021C111.363 58.1349 110.006 52.9363 111.905 48.4049C113.804 43.8736 118.243 41.7278 121.822 43.6099Z" fill="#4CA871"/>
<path fill-rule="evenodd" clip-rule="evenodd" d="M123.1 44.1694C126.679 46.0555 128.036 51.2541 126.137 55.7855C124.238 60.3168 119.799 62.4626 116.22 60.5805C112.641 58.6945 111.284 53.4958 113.183 48.9645C114.433 45.9796 116.783 44.0336 119.265 43.586L118.421 42.9667C118.76 32.8611 110.42 22.8514 97.9588 23.267C105.046 18.9235 121.243 25.5886 121.826 43.614H121.553C122.082 43.7219 122.6 43.9057 123.104 44.1734" fill="#6AC98A"/>
<path d="M104.876 65.0239C110.043 63.7771 112.675 61.032 114.069 59.3697L113.672 58.4746C111.367 61.1079 108.777 63.4335 104.644 64.0888C104.557 64.0289 104.28 63.7971 104.177 63.7372C103.978 63.6213 103.73 63.5254 103.362 63.5454C102.795 63.5694 101.943 64.2367 101.98 65.0119C102.017 65.7831 102.721 66.3824 103.494 66.3465C104.268 66.3105 104.831 65.7351 104.876 65.0279" fill="#55BE7D"/>
<path fill-rule="evenodd" clip-rule="evenodd" d="M153.591 19.8633H161.857C168.658 19.8633 174.173 25.1898 174.173 31.759V37.1415C174.173 43.7147 168.658 49.0372 161.857 49.0372H160.156L153.591 53.2968V49.0372C146.789 49.0372 141.274 43.7107 141.274 37.1415V31.759C141.274 25.1898 146.789 19.8633 153.591 19.8633Z" fill="white"/>
<path fill-rule="evenodd" clip-rule="evenodd" d="M151.39 40.0668L152.043 37.2777C150.236 37.1778 148.874 35.4836 148.874 33.7893C148.874 32.7504 149.263 31.8833 150.041 31.176C150.823 30.4767 151.787 30.1211 152.941 30.1211C154.095 30.1211 154.997 30.4807 155.759 31.184C158.526 33.7494 157.07 39.4834 151.39 40.0668Z" fill="#CFC6E1"/>
<path fill-rule="evenodd" clip-rule="evenodd" d="M161.306 40.0668L161.96 37.2777C160.152 37.1778 158.791 35.4836 158.791 33.7893C158.791 32.7504 159.18 31.8833 159.958 31.176C160.74 30.4767 161.704 30.1211 162.858 30.1211C164.012 30.1211 164.914 30.4807 165.675 31.184C168.443 33.7494 166.987 39.4834 161.306 40.0668Z" fill="#CFC6E1"/>
<path fill-rule="evenodd" clip-rule="evenodd" d="M168.993 76.7891H177.114C177.346 76.7891 177.536 76.9729 177.536 77.1966C177.536 77.4204 177.346 77.6042 177.114 77.6042H168.993C168.762 77.6042 168.571 77.4204 168.571 77.1966C168.571 76.9729 168.762 76.7891 168.993 76.7891Z" fill="#EEF7F2"/>
<path fill-rule="evenodd" clip-rule="evenodd" d="M168.046 78.9785H176.167C176.399 78.9785 176.589 79.1623 176.589 79.3861C176.589 79.6099 176.399 79.7937 176.167 79.7937H168.046C167.814 79.7937 167.624 79.6099 167.624 79.3861C167.624 79.1623 167.814 78.9785 168.046 78.9785Z" fill="#EEF7F2"/>
<path fill-rule="evenodd" clip-rule="evenodd" d="M167.094 81.168H175.215C175.447 81.168 175.637 81.3518 175.637 81.5755C175.637 81.7993 175.447 81.9831 175.215 81.9831H167.094C166.863 81.9831 166.672 81.7993 166.672 81.5755C166.672 81.3518 166.863 81.168 167.094 81.168Z" fill="#EEF7F2"/>
<path fill-rule="evenodd" clip-rule="evenodd" d="M122.351 46.7522C124.064 46.7282 125.479 48.6702 125.52 51.0997C125.562 53.5252 124.205 55.5111 122.492 55.5391C120.779 55.5631 119.364 53.6211 119.323 51.1916C119.282 48.7661 120.639 46.7801 122.351 46.7522Z" fill="#99D7AC"/>
<path opacity="0.1" d="M67.6709 24.6543C73.6698 18.6645 74.0835 8.98248 66.4008 3.61202C58.2549 -2.07411 36.6839 -0.495737 28.4345 4.52708C18.1248 10.8086 18.3895 27.6712 27.1975 35.0156C37.4244 43.5428 57.6508 34.652 67.6709 24.6503V24.6543Z" fill="#684EAA"/>
</g>
<defs>
<linearGradient id="paint0_linear_175_15645" x1="83.0983" y1="61.4959" x2="109.398" y2="61.4959" gradientUnits="userSpaceOnUse">
<stop stop-color="#100505"/>
<stop offset="1" stop-color="#4D2524"/>
</linearGradient>
<linearGradient id="paint1_linear_175_15645" x1="81.2696" y1="58.7711" x2="155.543" y2="58.7711" gradientUnits="userSpaceOnUse">
<stop stop-color="#100505"/>
<stop offset="1" stop-color="#4D2524"/>
</linearGradient>
<clipPath id="clip0_175_15645">
<rect width="232.721" height="252" fill="white"/>
</clipPath>
</defs>
</svg>
